# xmcd
#
# Track frame offsets:
#	150
#	21717
#	36332
#	56160
#	75647
#	92597
#	110192
#	127002
#	142460
#	163912
#	178527
#	198275
#	217740
#	234700
#	252270
#	269015
#
# Disc length: 3793 seconds
#
# Revision: 1
# Processed by: cddbd v1.5.1PL2 Copyright (c) Steve Scherf et al.
# Submitted via: audiograbber 1.83.01
#
DISCID=fb0ecf10
DTITLE=Sound Choice - sc3162
DYEAR=1900
DGENRE=Karaoke Country
TTITLE0=Byrd, Tracy - Put Your Hand In Mine
TTITLE1=Rogers, Kenny - Slow Dance More
TTITLE2=Black, Clint - When I Said I Do
TTITLE3=Adkins, Trace - Don't Lie
TTITLE4=Lonestar - Smile
TTITLE5=Bogguss, Suzy - Goodnight
TTITLE6=McEntire, Reba - What Do You Say
TTITLE7=Church, Claudia - It's All Your Fault
TTITLE8=Byrd, Tracy - Put Your Hand In Mine (Vocal)
TTITLE9=Rogers, Kenny - Slow Dance More (Vocal)
TTITLE10=Black, Clint - When I Said I Do (Vocal)
TTITLE11=Adkins, Trace - Don't Lie (Vocal)
TTITLE12=Lonestar - Smile (Vocal)
TTITLE13=Bogguss, Suzy - Goodnight (Vocal)
TTITLE14=McEntire, Reba - What Do You Say (Vocal)
TTITLE15=Church, Claudia - It's All Your Fault (Vocal)
EXTD=
EXTT0=
EXTT1=
EXTT2=
EXTT3=
EXTT4=
EXTT5=
EXTT6=
EXTT7=
EXTT8=
EXTT9=
EXTT10=
EXTT11=
EXTT12=
EXTT13=
EXTT14=
EXTT15=
PLAYORDER=
